%TF.GenerationSoftware,KiCad,Pcbnew,8.0.5*%
%TF.CreationDate,2024-11-21T02:05:10-08:00*%
%TF.ProjectId,Base,42617365-2e6b-4696-9361-645f70636258,rev?*%
%TF.SameCoordinates,Original*%
%TF.FileFunction,Copper,L1,Top*%
%TF.FilePolarity,Positive*%
%FSLAX46Y46*%
G04 Gerber Fmt 4.6, Leading zero omitted, Abs format (unit mm)*
G04 Created by KiCad (PCBNEW 8.0.5) date 2024-11-21 02:05:10*
%MOMM*%
%LPD*%
G01*
G04 APERTURE LIST*
G04 Aperture macros list*
%AMRoundRect*
0 Rectangle with rounded corners*
0 $1 Rounding radius*
0 $2 $3 $4 $5 $6 $7 $8 $9 X,Y pos of 4 corners*
0 Add a 4 corners polygon primitive as box body*
4,1,4,$2,$3,$4,$5,$6,$7,$8,$9,$2,$3,0*
0 Add four circle primitives for the rounded corners*
1,1,$1+$1,$2,$3*
1,1,$1+$1,$4,$5*
1,1,$1+$1,$6,$7*
1,1,$1+$1,$8,$9*
0 Add four rect primitives between the rounded corners*
20,1,$1+$1,$2,$3,$4,$5,0*
20,1,$1+$1,$4,$5,$6,$7,0*
20,1,$1+$1,$6,$7,$8,$9,0*
20,1,$1+$1,$8,$9,$2,$3,0*%
G04 Aperture macros list end*
%TA.AperFunction,ComponentPad*%
%ADD10R,1.600000X1.600000*%
%TD*%
%TA.AperFunction,ComponentPad*%
%ADD11O,1.600000X1.600000*%
%TD*%
%TA.AperFunction,ComponentPad*%
%ADD12C,1.400000*%
%TD*%
%TA.AperFunction,ComponentPad*%
%ADD13O,1.400000X1.400000*%
%TD*%
%TA.AperFunction,SMDPad,CuDef*%
%ADD14RoundRect,0.249999X0.762185X-1.308572X1.421043X-0.523374X-0.762185X1.308572X-1.421043X0.523374X0*%
%TD*%
%TA.AperFunction,SMDPad,CuDef*%
%ADD15RoundRect,0.249999X1.490338X0.268662X0.977837X1.156339X-1.490338X-0.268662X-0.977837X-1.156339X0*%
%TD*%
%TA.AperFunction,SMDPad,CuDef*%
%ADD16RoundRect,0.249999X1.461251X0.397531X0.873334X1.237163X-1.461251X-0.397531X-0.873334X-1.237163X0*%
%TD*%
%TA.AperFunction,SMDPad,CuDef*%
%ADD17RoundRect,0.249999X1.425001X-0.512501X1.425001X0.512501X-1.425001X0.512501X-1.425001X-0.512501X0*%
%TD*%
%TA.AperFunction,ComponentPad*%
%ADD18R,1.800000X1.800000*%
%TD*%
%TA.AperFunction,ComponentPad*%
%ADD19C,1.800000*%
%TD*%
%TA.AperFunction,ComponentPad*%
%ADD20C,1.600000*%
%TD*%
%TA.AperFunction,ViaPad*%
%ADD21C,0.600000*%
%TD*%
%TA.AperFunction,Conductor*%
%ADD22C,0.200000*%
%TD*%
G04 APERTURE END LIST*
D10*
%TO.P,U2,1,Q5*%
%TO.N,Net-(D16-A)*%
X137280000Y-89600000D03*
D11*
%TO.P,U2,2,Q1*%
%TO.N,Net-(D11-A)*%
X137280000Y-92140000D03*
%TO.P,U2,3,Q0*%
%TO.N,Net-(D12-A)*%
X137280000Y-94680000D03*
%TO.P,U2,4,Q2*%
%TO.N,Net-(D10-A)*%
X137280000Y-97220000D03*
%TO.P,U2,5,Q6*%
%TO.N,Net-(D15-A)*%
X137280000Y-99760000D03*
%TO.P,U2,6,Q7*%
%TO.N,Net-(D14-A)*%
X137280000Y-102300000D03*
%TO.P,U2,7,Q3*%
%TO.N,Net-(D18-A)*%
X137280000Y-104840000D03*
%TO.P,U2,8,VSS*%
%TO.N,GND*%
X137280000Y-107380000D03*
%TO.P,U2,9,Q8*%
%TO.N,Net-(D13-A)*%
X144900000Y-107380000D03*
%TO.P,U2,10,Q4*%
%TO.N,Net-(D17-A)*%
X144900000Y-104840000D03*
%TO.P,U2,11,Q9*%
%TO.N,Net-(D3-A)*%
X144900000Y-102300000D03*
%TO.P,U2,12,Cout*%
%TO.N,unconnected-(U2-Cout-Pad12)*%
X144900000Y-99760000D03*
%TO.P,U2,13,CKEN*%
%TO.N,Net-(U2-CKEN)*%
X144900000Y-97220000D03*
%TO.P,U2,14,CLK*%
%TO.N,Net-(U2-CLK)*%
X144900000Y-94680000D03*
%TO.P,U2,15,Reset*%
%TO.N,Net-(U2-Reset)*%
X144900000Y-92140000D03*
%TO.P,U2,16,VDD*%
%TO.N,VCC*%
X144900000Y-89600000D03*
%TD*%
D10*
%TO.P,U1,1,GND*%
%TO.N,GND1*%
X137400000Y-112500000D03*
D11*
%TO.P,U1,2,TR*%
%TO.N,Net-(U1-THR)*%
X137400000Y-115040000D03*
%TO.P,U1,3,Q*%
%TO.N,Net-(U1-Q)*%
X137400000Y-117580000D03*
%TO.P,U1,4,R*%
%TO.N,VCC*%
X137400000Y-120120000D03*
%TO.P,U1,5,CV*%
%TO.N,Net-(U1-CV)*%
X145020000Y-120120000D03*
%TO.P,U1,6,THR*%
%TO.N,Net-(U1-THR)*%
X145020000Y-117580000D03*
%TO.P,U1,7,DIS*%
%TO.N,Net-(U1-DIS)*%
X145020000Y-115040000D03*
%TO.P,U1,8,VCC*%
%TO.N,VCC*%
X145020000Y-112500000D03*
%TD*%
D12*
%TO.P,R11,1*%
%TO.N,Net-(D10-K)*%
X143200000Y-79680000D03*
D13*
%TO.P,R11,2*%
%TO.N,GND*%
X143200000Y-74600000D03*
%TD*%
D12*
%TO.P,R10,1*%
%TO.N,Net-(D3-K)*%
X141200000Y-66500000D03*
D13*
%TO.P,R10,2*%
%TO.N,GND*%
X141200000Y-71580000D03*
%TD*%
D12*
%TO.P,R8,1*%
%TO.N,Net-(D13-K)*%
X139300000Y-79580000D03*
D13*
%TO.P,R8,2*%
%TO.N,GND*%
X139300000Y-74500000D03*
%TD*%
D12*
%TO.P,R7,1*%
%TO.N,GND*%
X149200000Y-96080000D03*
D13*
%TO.P,R7,2*%
%TO.N,Net-(U2-Reset)*%
X149200000Y-91000000D03*
%TD*%
D12*
%TO.P,R6,1*%
%TO.N,GND*%
X149200000Y-99000000D03*
D13*
%TO.P,R6,2*%
%TO.N,Net-(U2-CKEN)*%
X149200000Y-104080000D03*
%TD*%
D12*
%TO.P,R5,1*%
%TO.N,Net-(U1-Q)*%
X147300000Y-129700000D03*
D13*
%TO.P,R5,2*%
%TO.N,Net-(D1-A)*%
X147300000Y-134780000D03*
%TD*%
D12*
%TO.P,R4,1*%
%TO.N,Net-(U1-Q)*%
X136900000Y-129560000D03*
D13*
%TO.P,R4,2*%
%TO.N,Net-(D2-K)*%
X136900000Y-134640000D03*
%TD*%
D12*
%TO.P,R3,1*%
%TO.N,Net-(U1-DIS)*%
X150800000Y-113440000D03*
D13*
%TO.P,R3,2*%
%TO.N,VCC*%
X150800000Y-108360000D03*
%TD*%
D12*
%TO.P,R2,1*%
%TO.N,Net-(U1-DIS)*%
X150800000Y-116060000D03*
D13*
%TO.P,R2,2*%
%TO.N,Net-(U1-THR)*%
X150800000Y-121140000D03*
%TD*%
D12*
%TO.P,R1,1*%
%TO.N,Net-(U1-Q)*%
X132800000Y-101140000D03*
D13*
%TO.P,R1,2*%
%TO.N,Net-(U2-CLK)*%
X132800000Y-96060000D03*
%TD*%
D14*
%TO.P,D21,1,K*%
%TO.N,Net-(D13-K)*%
X109379672Y-129488558D03*
%TO.P,D21,2,A*%
%TO.N,Net-(D12-A)*%
X113220328Y-124911442D03*
%TD*%
%TO.P,D20,1,K*%
%TO.N,Net-(D13-K)*%
X115059344Y-121877116D03*
%TO.P,D20,2,A*%
%TO.N,Net-(D11-A)*%
X118900000Y-117300000D03*
%TD*%
%TO.P,D19,1,K*%
%TO.N,Net-(D13-K)*%
X120779672Y-114588558D03*
%TO.P,D19,2,A*%
%TO.N,Net-(D10-A)*%
X124620328Y-110011442D03*
%TD*%
%TO.P,D18,1,K*%
%TO.N,Net-(D13-K)*%
X117559344Y-106677116D03*
%TO.P,D18,2,A*%
%TO.N,Net-(D18-A)*%
X121400000Y-102100000D03*
%TD*%
%TO.P,D17,1,K*%
%TO.N,Net-(D13-K)*%
X124559344Y-97877116D03*
%TO.P,D17,2,A*%
%TO.N,Net-(D17-A)*%
X128400000Y-93300000D03*
%TD*%
%TO.P,D16,1,K*%
%TO.N,Net-(D13-K)*%
X121759344Y-88277116D03*
%TO.P,D16,2,A*%
%TO.N,Net-(D16-A)*%
X125600000Y-83700000D03*
%TD*%
%TO.P,D15,1,K*%
%TO.N,Net-(D13-K)*%
X128059344Y-80177116D03*
%TO.P,D15,2,A*%
%TO.N,Net-(D15-A)*%
X131900000Y-75600000D03*
%TD*%
%TO.P,D14,1,K*%
%TO.N,Net-(D13-K)*%
X128179672Y-70888558D03*
%TO.P,D14,2,A*%
%TO.N,Net-(D14-A)*%
X132020328Y-66311442D03*
%TD*%
%TO.P,D13,1,K*%
%TO.N,Net-(D13-K)*%
X133779672Y-63288557D03*
%TO.P,D13,2,A*%
%TO.N,Net-(D13-A)*%
X137620328Y-58711443D03*
%TD*%
D15*
%TO.P,D12,2,A*%
%TO.N,Net-(D12-A)*%
X168800000Y-126100000D03*
%TO.P,D12,1,K*%
%TO.N,Net-(D10-K)*%
X171787500Y-131274502D03*
%TD*%
%TO.P,D11,2,A*%
%TO.N,Net-(D11-A)*%
X164000000Y-118700000D03*
%TO.P,D11,1,K*%
%TO.N,Net-(D10-K)*%
X166987500Y-123874502D03*
%TD*%
%TO.P,D10,2,A*%
%TO.N,Net-(D10-A)*%
X158200000Y-110800000D03*
%TO.P,D10,1,K*%
%TO.N,Net-(D10-K)*%
X161187500Y-115974502D03*
%TD*%
%TO.P,D9,1,K*%
%TO.N,Net-(D10-K)*%
X162793750Y-107087251D03*
%TO.P,D9,2,A*%
%TO.N,Net-(D18-A)*%
X159806250Y-101912749D03*
%TD*%
%TO.P,D8,1,K*%
%TO.N,Net-(D10-K)*%
X156993750Y-97687251D03*
%TO.P,D8,2,A*%
%TO.N,Net-(D17-A)*%
X154006250Y-92512749D03*
%TD*%
%TO.P,D7,1,K*%
%TO.N,Net-(D10-K)*%
X158087500Y-87874502D03*
%TO.P,D7,2,A*%
%TO.N,Net-(D16-A)*%
X155100000Y-82700000D03*
%TD*%
%TO.P,D6,1,K*%
%TO.N,Net-(D10-K)*%
X152893750Y-79487251D03*
%TO.P,D6,2,A*%
%TO.N,Net-(D15-A)*%
X149906250Y-74312749D03*
%TD*%
D16*
%TO.P,D5,1,K*%
%TO.N,Net-(D10-K)*%
X152627120Y-70794434D03*
%TO.P,D5,2,A*%
%TO.N,Net-(D14-A)*%
X149200000Y-65900000D03*
%TD*%
%TO.P,D4,1,K*%
%TO.N,Net-(D10-K)*%
X147127120Y-63194434D03*
%TO.P,D4,2,A*%
%TO.N,Net-(D13-A)*%
X143700000Y-58300000D03*
%TD*%
D17*
%TO.P,D3,1,K*%
%TO.N,Net-(D3-K)*%
X141300000Y-50887500D03*
%TO.P,D3,2,A*%
%TO.N,Net-(D3-A)*%
X141300000Y-44912500D03*
%TD*%
D18*
%TO.P,D2,1,K*%
%TO.N,Net-(D2-K)*%
X137925000Y-139500000D03*
D19*
%TO.P,D2,2,A*%
%TO.N,VCC*%
X140465000Y-139500000D03*
%TD*%
D18*
%TO.P,D1,1,K*%
%TO.N,GND*%
X144025000Y-139500000D03*
D19*
%TO.P,D1,2,A*%
%TO.N,Net-(D1-A)*%
X146565000Y-139500000D03*
%TD*%
D20*
%TO.P,C2,1*%
%TO.N,Net-(U1-THR)*%
X131700000Y-115100000D03*
%TO.P,C2,2*%
%TO.N,GND*%
X131700000Y-120100000D03*
%TD*%
%TO.P,C1,1*%
%TO.N,Net-(U1-CV)*%
X147100000Y-125300000D03*
%TO.P,C1,2*%
%TO.N,GND*%
X142100000Y-125300000D03*
%TD*%
D21*
%TO.N,Net-(D10-A)*%
X144700000Y-109600000D03*
X142900000Y-107800000D03*
%TO.N,Net-(D11-A)*%
X136100000Y-110200000D03*
X132124265Y-107075735D03*
%TO.N,Net-(U2-CKEN)*%
X150900000Y-100600000D03*
%TO.N,Net-(D16-A)*%
X147374265Y-79674265D03*
X152200000Y-84500000D03*
%TO.N,Net-(D17-A)*%
X146600000Y-103900000D03*
%TO.N,Net-(D12-A)*%
X117100000Y-126500000D03*
X141200000Y-127400000D03*
%TO.N,Net-(D18-A)*%
X150700000Y-106000000D03*
%TO.N,Net-(D12-A)*%
X136046709Y-99348903D03*
%TO.N,GND*%
X151600000Y-82800000D03*
%TO.N,Net-(D15-A)*%
X140800000Y-81200000D03*
%TO.N,Net-(D10-K)*%
X144907108Y-64892892D03*
%TO.N,Net-(D14-A)*%
X137850000Y-65850000D03*
%TO.N,Net-(D3-A)*%
X140400000Y-54300000D03*
%TO.N,Net-(D17-A)*%
X132000000Y-103900000D03*
%TO.N,Net-(D18-A)*%
X131260000Y-104840000D03*
%TO.N,Net-(U1-Q)*%
X142200000Y-129500000D03*
%TO.N,Net-(D3-K)*%
X141300000Y-53100000D03*
%TD*%
D22*
%TO.N,Net-(D10-K)*%
X171787500Y-128412500D02*
X172600000Y-127600000D01*
X171787500Y-131274502D02*
X171787500Y-128412500D01*
X168926548Y-121935454D02*
X168964546Y-121935454D01*
X163687273Y-113712727D02*
X168964546Y-121935454D01*
X168964546Y-121935454D02*
X172600000Y-127600000D01*
X166987500Y-123874502D02*
X168926548Y-121935454D01*
X163449275Y-113712727D02*
X163687273Y-113712727D01*
X161187500Y-115974502D02*
X163449275Y-113712727D01*
X159700000Y-107500000D02*
X163687273Y-113712727D01*
X162793750Y-107087251D02*
X159700000Y-107500000D01*
X162793750Y-102400000D02*
X162793750Y-107087251D01*
X156993750Y-97687251D02*
X159800000Y-97200000D01*
X159800000Y-97200000D02*
X162793750Y-102400000D01*
X156562002Y-89400000D02*
X156993750Y-97687251D01*
X156100000Y-79487251D02*
X159900000Y-86200000D01*
X159900000Y-86200000D02*
X158087500Y-87874502D01*
X152893750Y-79487251D02*
X156100000Y-79487251D01*
%TO.N,Net-(D13-K)*%
X121759344Y-88277116D02*
X121200000Y-84900000D01*
X121200000Y-84900000D02*
X124822884Y-80177116D01*
X128800000Y-75000000D02*
X131100000Y-72700000D01*
X128200000Y-76300000D02*
X128800000Y-75000000D01*
X124822884Y-80177116D02*
X128200000Y-76300000D01*
X124456250Y-94256250D02*
X127100000Y-90600000D01*
X122400000Y-97100000D02*
X124456250Y-94256250D01*
X124559344Y-97877116D02*
X124559344Y-94359344D01*
X124559344Y-94359344D02*
X124456250Y-94256250D01*
X123582228Y-90100000D02*
X121759344Y-88277116D01*
X127100000Y-90600000D02*
X123582228Y-90100000D01*
X116800000Y-103700000D02*
X122400000Y-97100000D01*
X117559344Y-106677116D02*
X116800000Y-103700000D01*
X120779672Y-110860000D02*
X120969836Y-110669836D01*
X120779672Y-114588558D02*
X120779672Y-110860000D01*
X120969836Y-110669836D02*
X115082623Y-118182623D01*
X122200000Y-109100000D02*
X120969836Y-110669836D01*
X115059344Y-118205902D02*
X115082623Y-118182623D01*
X115059344Y-121877116D02*
X115059344Y-118205902D01*
X115082623Y-118182623D02*
X109415082Y-125415082D01*
X109379672Y-129488558D02*
X109379672Y-125450492D01*
X109379672Y-125450492D02*
X109415082Y-125415082D01*
X118200000Y-109100000D02*
X122200000Y-109100000D01*
X117559344Y-108459344D02*
X118200000Y-109100000D01*
X117559344Y-106677116D02*
X117559344Y-108459344D01*
X129600000Y-69800000D02*
X129268230Y-69800000D01*
X129268230Y-69800000D02*
X128179672Y-70888558D01*
X129600000Y-65400000D02*
X129600000Y-69800000D01*
X133779672Y-63288557D02*
X131711443Y-63288557D01*
X131711443Y-63288557D02*
X129600000Y-65400000D01*
%TO.N,Net-(D11-A)*%
X121900000Y-117300000D02*
X132100000Y-107100000D01*
%TO.N,Net-(D10-A)*%
X157000000Y-109600000D02*
X158200000Y-110800000D01*
X142900000Y-102840000D02*
X142900000Y-107800000D01*
X137280000Y-97220000D02*
X142900000Y-102840000D01*
X144700000Y-109600000D02*
X157000000Y-109600000D01*
%TO.N,Net-(D11-A)*%
X151200000Y-110200000D02*
X136100000Y-110200000D01*
X159700000Y-118700000D02*
X151200000Y-110200000D01*
X164000000Y-118700000D02*
X159700000Y-118700000D01*
%TO.N,Net-(U2-CKEN)*%
X150900000Y-102400000D02*
X150880000Y-102400000D01*
X150880000Y-102400000D02*
X149200000Y-104080000D01*
X150900000Y-100600000D02*
X150900000Y-102400000D01*
%TO.N,Net-(D16-A)*%
X153300000Y-84500000D02*
X155100000Y-82700000D01*
X152200000Y-84500000D02*
X153300000Y-84500000D01*
X147205735Y-79674265D02*
X147374265Y-79674265D01*
X137280000Y-89600000D02*
X147205735Y-79674265D01*
%TO.N,Net-(D17-A)*%
X146600000Y-100094214D02*
X146600000Y-103900000D01*
X154006250Y-92687964D02*
X146600000Y-100094214D01*
X154006250Y-92512749D02*
X154006250Y-92687964D01*
%TO.N,GND*%
X145420000Y-108480000D02*
X138380000Y-108480000D01*
X138380000Y-108480000D02*
X137280000Y-107380000D01*
X148200000Y-105700000D02*
X145420000Y-108480000D01*
X148200000Y-100000000D02*
X148200000Y-105700000D01*
X149200000Y-99000000D02*
X148200000Y-100000000D01*
%TO.N,Net-(D18-A)*%
X154900000Y-106000000D02*
X157300000Y-103600000D01*
X150700000Y-106000000D02*
X154900000Y-106000000D01*
%TO.N,Net-(U1-DIS)*%
X150800000Y-113440000D02*
X150800000Y-116060000D01*
X150800000Y-116060000D02*
X149780000Y-115040000D01*
X149780000Y-115040000D02*
X145020000Y-115040000D01*
%TO.N,Net-(U1-CV)*%
X147100000Y-122200000D02*
X145020000Y-120120000D01*
X147100000Y-125300000D02*
X147100000Y-122200000D01*
%TO.N,Net-(U1-THR)*%
X142340000Y-115040000D02*
X137400000Y-115040000D01*
X144880000Y-117580000D02*
X142340000Y-115040000D01*
X145020000Y-117580000D02*
X144880000Y-117580000D01*
X148580000Y-121140000D02*
X145020000Y-117580000D01*
X150800000Y-121140000D02*
X148580000Y-121140000D01*
%TO.N,Net-(D12-A)*%
X115511442Y-124911442D02*
X113220328Y-124911442D01*
X117100000Y-126500000D02*
X115511442Y-124911442D01*
X167500000Y-127400000D02*
X141200000Y-127400000D01*
X168800000Y-126100000D02*
X167500000Y-127400000D01*
%TO.N,Net-(D18-A)*%
X157300000Y-103600000D02*
X158118999Y-103600000D01*
X158118999Y-103600000D02*
X159806250Y-101912749D01*
%TO.N,Net-(D12-A)*%
X136046709Y-104001820D02*
X136046709Y-99348903D01*
X113220328Y-124911442D02*
X115137087Y-124911442D01*
X115137087Y-124911442D02*
X136046709Y-104001820D01*
%TO.N,Net-(U2-CLK)*%
X143520000Y-96060000D02*
X144900000Y-94680000D01*
X132800000Y-96060000D02*
X143520000Y-96060000D01*
%TO.N,GND*%
X151600000Y-93680000D02*
X149200000Y-96080000D01*
X151600000Y-82800000D02*
X151600000Y-93680000D01*
%TO.N,Net-(D15-A)*%
X137500000Y-81200000D02*
X140800000Y-81200000D01*
X140800000Y-81200000D02*
X145000000Y-81200000D01*
%TO.N,Net-(D10-K)*%
X145428662Y-64892892D02*
X147127120Y-63194434D01*
X144907108Y-64892892D02*
X145428662Y-64892892D01*
%TO.N,Net-(D14-A)*%
X137850000Y-65850000D02*
X139200000Y-64500000D01*
X137388558Y-66311442D02*
X137850000Y-65850000D01*
%TO.N,Net-(D3-A)*%
X140400000Y-54100000D02*
X140400000Y-54300000D01*
X138500000Y-47712500D02*
X138500000Y-52200000D01*
X138500000Y-52200000D02*
X140400000Y-54100000D01*
X141300000Y-44912500D02*
X138500000Y-47712500D01*
%TO.N,Net-(D13-A)*%
X146000000Y-106280000D02*
X144900000Y-107380000D01*
X146000000Y-84200000D02*
X146000000Y-106280000D01*
X151949304Y-78250696D02*
X146000000Y-84200000D01*
X151949304Y-73439967D02*
X151949304Y-78250696D01*
X151113030Y-72603693D02*
X151949304Y-73439967D01*
X148975651Y-72603693D02*
X151113030Y-72603693D01*
X151212275Y-70367069D02*
X148975651Y-72603693D01*
X150300801Y-64111813D02*
X151212275Y-65023287D01*
X151212275Y-65023287D02*
X151212275Y-70367069D01*
X149145977Y-64111813D02*
X150300801Y-64111813D01*
X147757790Y-65500000D02*
X149145977Y-64111813D01*
X144665686Y-65500000D02*
X147757790Y-65500000D01*
X143700000Y-64534314D02*
X144665686Y-65500000D01*
X143700000Y-58300000D02*
X143700000Y-64534314D01*
%TO.N,Net-(D15-A)*%
X149906250Y-76293750D02*
X149906250Y-74312749D01*
X145000000Y-81200000D02*
X149906250Y-76293750D01*
X131900000Y-75600000D02*
X137500000Y-81200000D01*
%TO.N,Net-(D17-A)*%
X124100000Y-103100000D02*
X124900000Y-103900000D01*
X128400000Y-98800000D02*
X124100000Y-103100000D01*
X128400000Y-93300000D02*
X128400000Y-98800000D01*
X124900000Y-103900000D02*
X132000000Y-103900000D01*
%TO.N,Net-(D18-A)*%
X124140000Y-104840000D02*
X121400000Y-102100000D01*
X131260000Y-104840000D02*
X124140000Y-104840000D01*
%TO.N,GND*%
X134300000Y-110360000D02*
X137280000Y-107380000D01*
X134300000Y-117500000D02*
X134300000Y-110360000D01*
X131700000Y-120100000D02*
X134300000Y-117500000D01*
%TO.N,Net-(U1-Q)*%
X135600000Y-128140000D02*
X135600000Y-119380000D01*
X135540000Y-128200000D02*
X135600000Y-128140000D01*
X135600000Y-119380000D02*
X137400000Y-117580000D01*
X136900000Y-129560000D02*
X135540000Y-128200000D01*
X143000000Y-129700000D02*
X147300000Y-129700000D01*
X142800000Y-129500000D02*
X143000000Y-129700000D01*
X142200000Y-129500000D02*
X142800000Y-129500000D01*
%TO.N,VCC*%
X140465000Y-139500000D02*
X139200000Y-138235000D01*
X139200000Y-138235000D02*
X139200000Y-121920000D01*
X139200000Y-121920000D02*
X137400000Y-120120000D01*
%TO.N,Net-(D3-K)*%
X141300000Y-53100000D02*
X141300000Y-50887500D01*
%TO.N,GND*%
X143200000Y-73580000D02*
X143200000Y-74600000D01*
X141200000Y-71580000D02*
X143200000Y-73580000D01*
X139300000Y-73480000D02*
X141200000Y-71580000D01*
X139300000Y-74500000D02*
X139300000Y-73480000D01*
%TO.N,Net-(D11-A)*%
X118900000Y-117300000D02*
X121900000Y-117300000D01*
%TO.N,Net-(D10-A)*%
X135000000Y-99500000D02*
X137280000Y-97220000D01*
X127188558Y-110011442D02*
X135000000Y-102200000D01*
X124620328Y-110011442D02*
X127188558Y-110011442D01*
X135000000Y-102200000D02*
X135000000Y-99500000D01*
%TO.N,Net-(D10-K)*%
X158087500Y-87874502D02*
X156562002Y-89400000D01*
X152893750Y-73715304D02*
X152893750Y-79487251D01*
X151300000Y-72121554D02*
X152893750Y-73715304D01*
X152627120Y-70794434D02*
X151300000Y-72121554D01*
X152627120Y-65627120D02*
X152627120Y-70794434D01*
X147127120Y-63194434D02*
X150194434Y-63194434D01*
X150194434Y-63194434D02*
X152627120Y-65627120D01*
%TO.N,Net-(D13-A)*%
X143288557Y-58711443D02*
X143700000Y-58300000D01*
X137620328Y-58711443D02*
X143288557Y-58711443D01*
%TO.N,Net-(D14-A)*%
X144500000Y-65900000D02*
X149200000Y-65900000D01*
X139200000Y-64500000D02*
X143100000Y-64500000D01*
X143100000Y-64500000D02*
X144500000Y-65900000D01*
X132020328Y-66311442D02*
X137388558Y-66311442D01*
%TO.N,Net-(D13-K)*%
X131300000Y-72500000D02*
X131100000Y-72700000D01*
X132220000Y-72500000D02*
X131300000Y-72500000D01*
X139300000Y-79580000D02*
X132220000Y-72500000D01*
%TO.N,Net-(D16-A)*%
X131500000Y-89600000D02*
X125600000Y-83700000D01*
X137280000Y-89600000D02*
X131500000Y-89600000D01*
%TO.N,Net-(D13-K)*%
X131100000Y-72700000D02*
X129800000Y-72700000D01*
X129800000Y-72700000D02*
X129800000Y-72508886D01*
X129800000Y-72508886D02*
X128179672Y-70888558D01*
X124822884Y-80177116D02*
X128059344Y-80177116D01*
%TD*%
M02*
