%TF.GenerationSoftware,KiCad,Pcbnew,8.0.5*%
%TF.CreationDate,2024-11-21T02:05:10-08:00*%
%TF.ProjectId,Base,42617365-2e6b-4696-9361-645f70636258,rev?*%
%TF.SameCoordinates,Original*%
%TF.FileFunction,Legend,Top*%
%TF.FilePolarity,Positive*%
%FSLAX46Y46*%
G04 Gerber Fmt 4.6, Leading zero omitted, Abs format (unit mm)*
G04 Created by KiCad (PCBNEW 8.0.5) date 2024-11-21 02:05:10*
%MOMM*%
%LPD*%
G01*
G04 APERTURE LIST*
%ADD10C,1.000000*%
%ADD11C,0.100000*%
%ADD12C,0.150000*%
%ADD13C,0.120000*%
G04 APERTURE END LIST*
D10*
X154801064Y-124431209D02*
G75*
G02*
X157313163Y-121340986I2771368J313281D01*
G01*
X157696501Y-121768999D02*
G75*
G02*
X148700001Y-127300000I-4396501J-2931001D01*
G01*
X167437912Y-129510514D02*
G75*
G02*
X154801063Y-124431209I-5136849J5479305D01*
G01*
X140737912Y-125610514D02*
G75*
G02*
X128101063Y-120531209I-5136849J5479305D01*
G01*
X133200000Y-121800000D02*
G75*
G02*
X117332861Y-123356179I-7898937J-1131209D01*
G01*
X143100001Y-107099999D02*
G75*
G02*
X142176863Y-99282898I3699999J4399999D01*
G01*
X152205180Y-100513863D02*
G75*
G02*
X145900000Y-108300000I-5461962J-2022949D01*
G01*
X159700000Y-106899999D02*
G75*
G02*
X149076809Y-105318635I-4456204J6536978D01*
G01*
X135836849Y-105179305D02*
G75*
G02*
X123200000Y-100100000I-5136849J5479305D01*
G01*
X134000000Y-75400001D02*
G75*
G02*
X135886224Y-76596811I-200000J-2399999D01*
G01*
X144460064Y-74719807D02*
G75*
G02*
X145782080Y-75799201I-760064J-2280193D01*
G01*
X154149478Y-81164535D02*
G75*
G02*
X144000000Y-80900000I-4911223J6405941D01*
G01*
X135921897Y-76395100D02*
G75*
G02*
X127550675Y-85874220I-7621897J-1704899D01*
G01*
X145782081Y-75799201D02*
G75*
G02*
X129732142Y-82690946I-8949939J-1291744D01*
G01*
X140400000Y-65499999D02*
G75*
G02*
X138236099Y-62046306I1212302J3164304D01*
G01*
X139999999Y-59500001D02*
G75*
G02*
X133360905Y-65113079I-3094103J-3073192D01*
G01*
X147082720Y-65160451D02*
G75*
G02*
X142500000Y-66599999I-3887566J4361656D01*
G01*
D11*
X128800001Y-85800000D02*
X128800001Y-85800000D01*
X128800001Y-85800000D01*
X128800001Y-85800000D01*
X128800001Y-85800000D01*
X128800001Y-85800000D01*
X128800001Y-85800001D01*
X128800001Y-85800001D01*
X128800001Y-85800001D01*
X128800001Y-85800001D01*
X128800001Y-85800001D01*
X128800001Y-85800001D01*
X128800001Y-85800001D01*
X128800000Y-85800001D01*
X128800000Y-85800001D01*
X128800000Y-85800001D01*
X128800000Y-85800001D01*
X128800000Y-85800001D01*
X128800000Y-85800001D01*
X128800000Y-85800001D01*
X128800000Y-85800001D01*
X128800000Y-85800001D01*
X128800000Y-85800001D01*
X128800000Y-85800001D01*
X128800000Y-85800001D01*
X128799999Y-85800001D01*
X128799999Y-85800001D01*
X128799999Y-85800001D01*
X128799999Y-85800001D01*
X128799999Y-85800001D01*
X128799999Y-85800001D01*
X128799999Y-85800000D01*
X128799999Y-85800000D01*
X128799999Y-85800000D01*
X128799999Y-85800000D01*
X128799999Y-85800000D01*
X128799999Y-85800000D01*
X128799999Y-85800000D02*
X128799999Y-85800000D01*
X128799999Y-85800000D01*
X128799999Y-85800000D01*
X128799999Y-85800000D01*
X128799999Y-85800000D01*
X128799999Y-85800000D01*
X128799999Y-85799999D01*
X128799999Y-85799999D01*
X128799999Y-85799999D01*
X128799999Y-85799999D01*
X128799999Y-85799999D01*
X128800000Y-85799999D01*
X128800000Y-85799999D01*
X128800000Y-85799999D01*
X128800000Y-85799999D01*
X128800000Y-85799999D01*
X128800000Y-85799999D01*
X128800000Y-85799999D01*
X128800000Y-85799999D01*
X128800000Y-85799999D01*
X128800000Y-85799999D01*
X128800000Y-85799999D01*
X128800000Y-85799999D01*
X128800001Y-85799999D01*
X128800001Y-85799999D01*
X128800001Y-85799999D01*
X128800001Y-85799999D01*
X128800001Y-85799999D01*
X128800001Y-85799999D01*
X128800001Y-85800000D01*
X128800001Y-85800000D01*
X128800001Y-85800000D01*
X128800001Y-85800000D01*
X128800001Y-85800000D01*
X128800001Y-85800000D01*
X128800001Y-85800000D01*
D12*
X140328095Y-86724819D02*
X140328095Y-87534342D01*
X140328095Y-87534342D02*
X140375714Y-87629580D01*
X140375714Y-87629580D02*
X140423333Y-87677200D01*
X140423333Y-87677200D02*
X140518571Y-87724819D01*
X140518571Y-87724819D02*
X140709047Y-87724819D01*
X140709047Y-87724819D02*
X140804285Y-87677200D01*
X140804285Y-87677200D02*
X140851904Y-87629580D01*
X140851904Y-87629580D02*
X140899523Y-87534342D01*
X140899523Y-87534342D02*
X140899523Y-86724819D01*
X141328095Y-86820057D02*
X141375714Y-86772438D01*
X141375714Y-86772438D02*
X141470952Y-86724819D01*
X141470952Y-86724819D02*
X141709047Y-86724819D01*
X141709047Y-86724819D02*
X141804285Y-86772438D01*
X141804285Y-86772438D02*
X141851904Y-86820057D01*
X141851904Y-86820057D02*
X141899523Y-86915295D01*
X141899523Y-86915295D02*
X141899523Y-87010533D01*
X141899523Y-87010533D02*
X141851904Y-87153390D01*
X141851904Y-87153390D02*
X141280476Y-87724819D01*
X141280476Y-87724819D02*
X141899523Y-87724819D01*
X140448095Y-109624819D02*
X140448095Y-110434342D01*
X140448095Y-110434342D02*
X140495714Y-110529580D01*
X140495714Y-110529580D02*
X140543333Y-110577200D01*
X140543333Y-110577200D02*
X140638571Y-110624819D01*
X140638571Y-110624819D02*
X140829047Y-110624819D01*
X140829047Y-110624819D02*
X140924285Y-110577200D01*
X140924285Y-110577200D02*
X140971904Y-110529580D01*
X140971904Y-110529580D02*
X141019523Y-110434342D01*
X141019523Y-110434342D02*
X141019523Y-109624819D01*
X142019523Y-110624819D02*
X141448095Y-110624819D01*
X141733809Y-110624819D02*
X141733809Y-109624819D01*
X141733809Y-109624819D02*
X141638571Y-109767676D01*
X141638571Y-109767676D02*
X141543333Y-109862914D01*
X141543333Y-109862914D02*
X141448095Y-109910533D01*
X141734819Y-77782857D02*
X141258628Y-78116190D01*
X141734819Y-78354285D02*
X140734819Y-78354285D01*
X140734819Y-78354285D02*
X140734819Y-77973333D01*
X140734819Y-77973333D02*
X140782438Y-77878095D01*
X140782438Y-77878095D02*
X140830057Y-77830476D01*
X140830057Y-77830476D02*
X140925295Y-77782857D01*
X140925295Y-77782857D02*
X141068152Y-77782857D01*
X141068152Y-77782857D02*
X141163390Y-77830476D01*
X141163390Y-77830476D02*
X141211009Y-77878095D01*
X141211009Y-77878095D02*
X141258628Y-77973333D01*
X141258628Y-77973333D02*
X141258628Y-78354285D01*
X141734819Y-76830476D02*
X141734819Y-77401904D01*
X141734819Y-77116190D02*
X140734819Y-77116190D01*
X140734819Y-77116190D02*
X140877676Y-77211428D01*
X140877676Y-77211428D02*
X140972914Y-77306666D01*
X140972914Y-77306666D02*
X141020533Y-77401904D01*
X141734819Y-75878095D02*
X141734819Y-76449523D01*
X141734819Y-76163809D02*
X140734819Y-76163809D01*
X140734819Y-76163809D02*
X140877676Y-76259047D01*
X140877676Y-76259047D02*
X140972914Y-76354285D01*
X140972914Y-76354285D02*
X141020533Y-76449523D01*
X141654819Y-69542857D02*
X141178628Y-69876190D01*
X141654819Y-70114285D02*
X140654819Y-70114285D01*
X140654819Y-70114285D02*
X140654819Y-69733333D01*
X140654819Y-69733333D02*
X140702438Y-69638095D01*
X140702438Y-69638095D02*
X140750057Y-69590476D01*
X140750057Y-69590476D02*
X140845295Y-69542857D01*
X140845295Y-69542857D02*
X140988152Y-69542857D01*
X140988152Y-69542857D02*
X141083390Y-69590476D01*
X141083390Y-69590476D02*
X141131009Y-69638095D01*
X141131009Y-69638095D02*
X141178628Y-69733333D01*
X141178628Y-69733333D02*
X141178628Y-70114285D01*
X141654819Y-68590476D02*
X141654819Y-69161904D01*
X141654819Y-68876190D02*
X140654819Y-68876190D01*
X140654819Y-68876190D02*
X140797676Y-68971428D01*
X140797676Y-68971428D02*
X140892914Y-69066666D01*
X140892914Y-69066666D02*
X140940533Y-69161904D01*
X140654819Y-67971428D02*
X140654819Y-67876190D01*
X140654819Y-67876190D02*
X140702438Y-67780952D01*
X140702438Y-67780952D02*
X140750057Y-67733333D01*
X140750057Y-67733333D02*
X140845295Y-67685714D01*
X140845295Y-67685714D02*
X141035771Y-67638095D01*
X141035771Y-67638095D02*
X141273866Y-67638095D01*
X141273866Y-67638095D02*
X141464342Y-67685714D01*
X141464342Y-67685714D02*
X141559580Y-67733333D01*
X141559580Y-67733333D02*
X141607200Y-67780952D01*
X141607200Y-67780952D02*
X141654819Y-67876190D01*
X141654819Y-67876190D02*
X141654819Y-67971428D01*
X141654819Y-67971428D02*
X141607200Y-68066666D01*
X141607200Y-68066666D02*
X141559580Y-68114285D01*
X141559580Y-68114285D02*
X141464342Y-68161904D01*
X141464342Y-68161904D02*
X141273866Y-68209523D01*
X141273866Y-68209523D02*
X141035771Y-68209523D01*
X141035771Y-68209523D02*
X140845295Y-68161904D01*
X140845295Y-68161904D02*
X140750057Y-68114285D01*
X140750057Y-68114285D02*
X140702438Y-68066666D01*
X140702438Y-68066666D02*
X140654819Y-67971428D01*
X137834819Y-77206666D02*
X137358628Y-77539999D01*
X137834819Y-77778094D02*
X136834819Y-77778094D01*
X136834819Y-77778094D02*
X136834819Y-77397142D01*
X136834819Y-77397142D02*
X136882438Y-77301904D01*
X136882438Y-77301904D02*
X136930057Y-77254285D01*
X136930057Y-77254285D02*
X137025295Y-77206666D01*
X137025295Y-77206666D02*
X137168152Y-77206666D01*
X137168152Y-77206666D02*
X137263390Y-77254285D01*
X137263390Y-77254285D02*
X137311009Y-77301904D01*
X137311009Y-77301904D02*
X137358628Y-77397142D01*
X137358628Y-77397142D02*
X137358628Y-77778094D01*
X137263390Y-76635237D02*
X137215771Y-76730475D01*
X137215771Y-76730475D02*
X137168152Y-76778094D01*
X137168152Y-76778094D02*
X137072914Y-76825713D01*
X137072914Y-76825713D02*
X137025295Y-76825713D01*
X137025295Y-76825713D02*
X136930057Y-76778094D01*
X136930057Y-76778094D02*
X136882438Y-76730475D01*
X136882438Y-76730475D02*
X136834819Y-76635237D01*
X136834819Y-76635237D02*
X136834819Y-76444761D01*
X136834819Y-76444761D02*
X136882438Y-76349523D01*
X136882438Y-76349523D02*
X136930057Y-76301904D01*
X136930057Y-76301904D02*
X137025295Y-76254285D01*
X137025295Y-76254285D02*
X137072914Y-76254285D01*
X137072914Y-76254285D02*
X137168152Y-76301904D01*
X137168152Y-76301904D02*
X137215771Y-76349523D01*
X137215771Y-76349523D02*
X137263390Y-76444761D01*
X137263390Y-76444761D02*
X137263390Y-76635237D01*
X137263390Y-76635237D02*
X137311009Y-76730475D01*
X137311009Y-76730475D02*
X137358628Y-76778094D01*
X137358628Y-76778094D02*
X137453866Y-76825713D01*
X137453866Y-76825713D02*
X137644342Y-76825713D01*
X137644342Y-76825713D02*
X137739580Y-76778094D01*
X137739580Y-76778094D02*
X137787200Y-76730475D01*
X137787200Y-76730475D02*
X137834819Y-76635237D01*
X137834819Y-76635237D02*
X137834819Y-76444761D01*
X137834819Y-76444761D02*
X137787200Y-76349523D01*
X137787200Y-76349523D02*
X137739580Y-76301904D01*
X137739580Y-76301904D02*
X137644342Y-76254285D01*
X137644342Y-76254285D02*
X137453866Y-76254285D01*
X137453866Y-76254285D02*
X137358628Y-76301904D01*
X137358628Y-76301904D02*
X137311009Y-76349523D01*
X137311009Y-76349523D02*
X137263390Y-76444761D01*
X149674819Y-132406666D02*
X149198628Y-132739999D01*
X149674819Y-132978094D02*
X148674819Y-132978094D01*
X148674819Y-132978094D02*
X148674819Y-132597142D01*
X148674819Y-132597142D02*
X148722438Y-132501904D01*
X148722438Y-132501904D02*
X148770057Y-132454285D01*
X148770057Y-132454285D02*
X148865295Y-132406666D01*
X148865295Y-132406666D02*
X149008152Y-132406666D01*
X149008152Y-132406666D02*
X149103390Y-132454285D01*
X149103390Y-132454285D02*
X149151009Y-132501904D01*
X149151009Y-132501904D02*
X149198628Y-132597142D01*
X149198628Y-132597142D02*
X149198628Y-132978094D01*
X148674819Y-131501904D02*
X148674819Y-131978094D01*
X148674819Y-131978094D02*
X149151009Y-132025713D01*
X149151009Y-132025713D02*
X149103390Y-131978094D01*
X149103390Y-131978094D02*
X149055771Y-131882856D01*
X149055771Y-131882856D02*
X149055771Y-131644761D01*
X149055771Y-131644761D02*
X149103390Y-131549523D01*
X149103390Y-131549523D02*
X149151009Y-131501904D01*
X149151009Y-131501904D02*
X149246247Y-131454285D01*
X149246247Y-131454285D02*
X149484342Y-131454285D01*
X149484342Y-131454285D02*
X149579580Y-131501904D01*
X149579580Y-131501904D02*
X149627200Y-131549523D01*
X149627200Y-131549523D02*
X149674819Y-131644761D01*
X149674819Y-131644761D02*
X149674819Y-131882856D01*
X149674819Y-131882856D02*
X149627200Y-131978094D01*
X149627200Y-131978094D02*
X149579580Y-132025713D01*
X139274819Y-132266666D02*
X138798628Y-132599999D01*
X139274819Y-132838094D02*
X138274819Y-132838094D01*
X138274819Y-132838094D02*
X138274819Y-132457142D01*
X138274819Y-132457142D02*
X138322438Y-132361904D01*
X138322438Y-132361904D02*
X138370057Y-132314285D01*
X138370057Y-132314285D02*
X138465295Y-132266666D01*
X138465295Y-132266666D02*
X138608152Y-132266666D01*
X138608152Y-132266666D02*
X138703390Y-132314285D01*
X138703390Y-132314285D02*
X138751009Y-132361904D01*
X138751009Y-132361904D02*
X138798628Y-132457142D01*
X138798628Y-132457142D02*
X138798628Y-132838094D01*
X138608152Y-131409523D02*
X139274819Y-131409523D01*
X138227200Y-131647618D02*
X138941485Y-131885713D01*
X138941485Y-131885713D02*
X138941485Y-131266666D01*
X110867883Y-128422548D02*
X110101839Y-127779761D01*
X110101839Y-127779761D02*
X110254883Y-127597369D01*
X110254883Y-127597369D02*
X110383189Y-127518543D01*
X110383189Y-127518543D02*
X110517363Y-127506805D01*
X110517363Y-127506805D02*
X110620929Y-127531544D01*
X110620929Y-127531544D02*
X110797451Y-127617502D01*
X110797451Y-127617502D02*
X110906886Y-127709328D01*
X110906886Y-127709328D02*
X111022190Y-127868242D01*
X111022190Y-127868242D02*
X111064538Y-127965939D01*
X111064538Y-127965939D02*
X111076276Y-128100113D01*
X111076276Y-128100113D02*
X111020928Y-128240157D01*
X111020928Y-128240157D02*
X110867883Y-128422548D01*
X110786974Y-127111413D02*
X110781105Y-127044325D01*
X110781105Y-127044325D02*
X110805844Y-126940760D01*
X110805844Y-126940760D02*
X110958889Y-126758368D01*
X110958889Y-126758368D02*
X111056585Y-126716021D01*
X111056585Y-126716021D02*
X111123672Y-126710151D01*
X111123672Y-126710151D02*
X111227238Y-126734891D01*
X111227238Y-126734891D02*
X111300195Y-126796109D01*
X111300195Y-126796109D02*
X111379021Y-126924414D01*
X111379021Y-126924414D02*
X111449453Y-127729461D01*
X111449453Y-127729461D02*
X111847369Y-127255243D01*
X112459548Y-126525676D02*
X112092241Y-126963416D01*
X112275894Y-126744546D02*
X111509850Y-126101759D01*
X111509850Y-126101759D02*
X111558067Y-126266542D01*
X111558067Y-126266542D02*
X111569806Y-126400717D01*
X111569806Y-126400717D02*
X111545066Y-126504282D01*
X116867883Y-120922548D02*
X116101839Y-120279761D01*
X116101839Y-120279761D02*
X116254883Y-120097369D01*
X116254883Y-120097369D02*
X116383189Y-120018543D01*
X116383189Y-120018543D02*
X116517363Y-120006805D01*
X116517363Y-120006805D02*
X116620929Y-120031544D01*
X116620929Y-120031544D02*
X116797451Y-120117502D01*
X116797451Y-120117502D02*
X116906886Y-120209328D01*
X116906886Y-120209328D02*
X117022190Y-120368242D01*
X117022190Y-120368242D02*
X117064538Y-120465939D01*
X117064538Y-120465939D02*
X117076276Y-120600113D01*
X117076276Y-120600113D02*
X117020928Y-120740157D01*
X117020928Y-120740157D02*
X116867883Y-120922548D01*
X116786974Y-119611413D02*
X116781105Y-119544325D01*
X116781105Y-119544325D02*
X116805844Y-119440760D01*
X116805844Y-119440760D02*
X116958889Y-119258368D01*
X116958889Y-119258368D02*
X117056585Y-119216021D01*
X117056585Y-119216021D02*
X117123672Y-119210151D01*
X117123672Y-119210151D02*
X117227238Y-119234891D01*
X117227238Y-119234891D02*
X117300195Y-119296109D01*
X117300195Y-119296109D02*
X117379021Y-119424414D01*
X117379021Y-119424414D02*
X117449453Y-120229461D01*
X117449453Y-120229461D02*
X117847369Y-119755243D01*
X117479241Y-118638237D02*
X117540459Y-118565280D01*
X117540459Y-118565280D02*
X117638155Y-118522933D01*
X117638155Y-118522933D02*
X117705242Y-118517063D01*
X117705242Y-118517063D02*
X117808808Y-118541803D01*
X117808808Y-118541803D02*
X117985330Y-118627760D01*
X117985330Y-118627760D02*
X118167721Y-118780805D01*
X118167721Y-118780805D02*
X118283026Y-118939719D01*
X118283026Y-118939719D02*
X118325373Y-119037415D01*
X118325373Y-119037415D02*
X118331243Y-119104502D01*
X118331243Y-119104502D02*
X118306503Y-119208068D01*
X118306503Y-119208068D02*
X118245285Y-119281025D01*
X118245285Y-119281025D02*
X118147589Y-119323372D01*
X118147589Y-119323372D02*
X118080502Y-119329242D01*
X118080502Y-119329242D02*
X117976936Y-119304502D01*
X117976936Y-119304502D02*
X117800414Y-119218545D01*
X117800414Y-119218545D02*
X117618023Y-119065500D01*
X117618023Y-119065500D02*
X117502718Y-118906586D01*
X117502718Y-118906586D02*
X117460371Y-118808890D01*
X117460371Y-118808890D02*
X117454501Y-118741803D01*
X117454501Y-118741803D02*
X117479241Y-118638237D01*
X122367883Y-113522548D02*
X121601839Y-112879761D01*
X121601839Y-112879761D02*
X121754883Y-112697369D01*
X121754883Y-112697369D02*
X121883189Y-112618543D01*
X121883189Y-112618543D02*
X122017363Y-112606805D01*
X122017363Y-112606805D02*
X122120929Y-112631544D01*
X122120929Y-112631544D02*
X122297451Y-112717502D01*
X122297451Y-112717502D02*
X122406886Y-112809328D01*
X122406886Y-112809328D02*
X122522190Y-112968242D01*
X122522190Y-112968242D02*
X122564538Y-113065939D01*
X122564538Y-113065939D02*
X122576276Y-113200113D01*
X122576276Y-113200113D02*
X122520928Y-113340157D01*
X122520928Y-113340157D02*
X122367883Y-113522548D01*
X123347369Y-112355243D02*
X122980062Y-112792982D01*
X123163716Y-112574112D02*
X122397671Y-111931325D01*
X122397671Y-111931325D02*
X122445888Y-112096108D01*
X122445888Y-112096108D02*
X122457627Y-112230283D01*
X122457627Y-112230283D02*
X122432887Y-112333848D01*
X123653459Y-111990459D02*
X123775894Y-111844546D01*
X123775894Y-111844546D02*
X123800634Y-111740981D01*
X123800634Y-111740981D02*
X123794764Y-111673893D01*
X123794764Y-111673893D02*
X123746547Y-111509110D01*
X123746547Y-111509110D02*
X123631243Y-111350196D01*
X123631243Y-111350196D02*
X123339417Y-111105325D01*
X123339417Y-111105325D02*
X123235851Y-111080585D01*
X123235851Y-111080585D02*
X123168764Y-111086454D01*
X123168764Y-111086454D02*
X123071068Y-111128802D01*
X123071068Y-111128802D02*
X122948632Y-111274715D01*
X122948632Y-111274715D02*
X122923892Y-111378281D01*
X122923892Y-111378281D02*
X122929762Y-111445368D01*
X122929762Y-111445368D02*
X122972109Y-111543064D01*
X122972109Y-111543064D02*
X123154501Y-111696109D01*
X123154501Y-111696109D02*
X123258067Y-111720848D01*
X123258067Y-111720848D02*
X123325154Y-111714979D01*
X123325154Y-111714979D02*
X123422850Y-111672631D01*
X123422850Y-111672631D02*
X123545286Y-111526718D01*
X123545286Y-111526718D02*
X123570025Y-111423153D01*
X123570025Y-111423153D02*
X123564156Y-111356065D01*
X123564156Y-111356065D02*
X123521808Y-111258369D01*
X119067883Y-105722548D02*
X118301839Y-105079761D01*
X118301839Y-105079761D02*
X118454883Y-104897369D01*
X118454883Y-104897369D02*
X118583189Y-104818543D01*
X118583189Y-104818543D02*
X118717363Y-104806805D01*
X118717363Y-104806805D02*
X118820929Y-104831544D01*
X118820929Y-104831544D02*
X118997451Y-104917502D01*
X118997451Y-104917502D02*
X119106886Y-105009328D01*
X119106886Y-105009328D02*
X119222190Y-105168242D01*
X119222190Y-105168242D02*
X119264538Y-105265939D01*
X119264538Y-105265939D02*
X119276276Y-105400113D01*
X119276276Y-105400113D02*
X119220928Y-105540157D01*
X119220928Y-105540157D02*
X119067883Y-105722548D01*
X120047369Y-104555243D02*
X119680062Y-104992982D01*
X119863716Y-104774112D02*
X119097671Y-104131325D01*
X119097671Y-104131325D02*
X119145888Y-104296108D01*
X119145888Y-104296108D02*
X119157627Y-104430283D01*
X119157627Y-104430283D02*
X119132887Y-104533848D01*
X119976937Y-103750196D02*
X119879241Y-103792543D01*
X119879241Y-103792543D02*
X119812153Y-103798413D01*
X119812153Y-103798413D02*
X119708588Y-103773673D01*
X119708588Y-103773673D02*
X119672109Y-103743064D01*
X119672109Y-103743064D02*
X119629762Y-103645368D01*
X119629762Y-103645368D02*
X119623892Y-103578281D01*
X119623892Y-103578281D02*
X119648632Y-103474715D01*
X119648632Y-103474715D02*
X119771068Y-103328802D01*
X119771068Y-103328802D02*
X119868764Y-103286454D01*
X119868764Y-103286454D02*
X119935851Y-103280585D01*
X119935851Y-103280585D02*
X120039417Y-103305325D01*
X120039417Y-103305325D02*
X120075895Y-103335933D01*
X120075895Y-103335933D02*
X120118243Y-103433630D01*
X120118243Y-103433630D02*
X120124112Y-103500717D01*
X120124112Y-103500717D02*
X120099372Y-103604282D01*
X120099372Y-103604282D02*
X119976937Y-103750196D01*
X119976937Y-103750196D02*
X119952197Y-103853761D01*
X119952197Y-103853761D02*
X119958067Y-103920848D01*
X119958067Y-103920848D02*
X120000414Y-104018545D01*
X120000414Y-104018545D02*
X120146327Y-104140980D01*
X120146327Y-104140980D02*
X120249893Y-104165720D01*
X120249893Y-104165720D02*
X120316980Y-104159851D01*
X120316980Y-104159851D02*
X120414676Y-104117503D01*
X120414676Y-104117503D02*
X120537112Y-103971590D01*
X120537112Y-103971590D02*
X120561852Y-103868024D01*
X120561852Y-103868024D02*
X120555982Y-103800937D01*
X120555982Y-103800937D02*
X120513635Y-103703241D01*
X120513635Y-103703241D02*
X120367721Y-103580805D01*
X120367721Y-103580805D02*
X120264156Y-103556065D01*
X120264156Y-103556065D02*
X120197069Y-103561935D01*
X120197069Y-103561935D02*
X120099372Y-103604282D01*
X125967883Y-96722548D02*
X125201839Y-96079761D01*
X125201839Y-96079761D02*
X125354883Y-95897369D01*
X125354883Y-95897369D02*
X125483189Y-95818543D01*
X125483189Y-95818543D02*
X125617363Y-95806805D01*
X125617363Y-95806805D02*
X125720929Y-95831544D01*
X125720929Y-95831544D02*
X125897451Y-95917502D01*
X125897451Y-95917502D02*
X126006886Y-96009328D01*
X126006886Y-96009328D02*
X126122190Y-96168242D01*
X126122190Y-96168242D02*
X126164538Y-96265939D01*
X126164538Y-96265939D02*
X126176276Y-96400113D01*
X126176276Y-96400113D02*
X126120928Y-96540157D01*
X126120928Y-96540157D02*
X125967883Y-96722548D01*
X126947369Y-95555243D02*
X126580062Y-95992982D01*
X126763716Y-95774112D02*
X125997671Y-95131325D01*
X125997671Y-95131325D02*
X126045888Y-95296108D01*
X126045888Y-95296108D02*
X126057627Y-95430283D01*
X126057627Y-95430283D02*
X126032887Y-95533848D01*
X126395587Y-94657107D02*
X126824112Y-94146411D01*
X126824112Y-94146411D02*
X127314676Y-95117503D01*
X123467883Y-87222548D02*
X122701839Y-86579761D01*
X122701839Y-86579761D02*
X122854883Y-86397369D01*
X122854883Y-86397369D02*
X122983189Y-86318543D01*
X122983189Y-86318543D02*
X123117363Y-86306805D01*
X123117363Y-86306805D02*
X123220929Y-86331544D01*
X123220929Y-86331544D02*
X123397451Y-86417502D01*
X123397451Y-86417502D02*
X123506886Y-86509328D01*
X123506886Y-86509328D02*
X123622190Y-86668242D01*
X123622190Y-86668242D02*
X123664538Y-86765939D01*
X123664538Y-86765939D02*
X123676276Y-86900113D01*
X123676276Y-86900113D02*
X123620928Y-87040157D01*
X123620928Y-87040157D02*
X123467883Y-87222548D01*
X124447369Y-86055243D02*
X124080062Y-86492982D01*
X124263716Y-86274112D02*
X123497671Y-85631325D01*
X123497671Y-85631325D02*
X123545888Y-85796108D01*
X123545888Y-85796108D02*
X123557627Y-85930283D01*
X123557627Y-85930283D02*
X123532887Y-86033848D01*
X124232286Y-84755845D02*
X124109850Y-84901759D01*
X124109850Y-84901759D02*
X124085110Y-85005324D01*
X124085110Y-85005324D02*
X124090980Y-85072411D01*
X124090980Y-85072411D02*
X124139197Y-85237195D01*
X124139197Y-85237195D02*
X124254501Y-85396109D01*
X124254501Y-85396109D02*
X124546327Y-85640980D01*
X124546327Y-85640980D02*
X124649893Y-85665720D01*
X124649893Y-85665720D02*
X124716980Y-85659851D01*
X124716980Y-85659851D02*
X124814676Y-85617503D01*
X124814676Y-85617503D02*
X124937112Y-85471590D01*
X124937112Y-85471590D02*
X124961852Y-85368024D01*
X124961852Y-85368024D02*
X124955982Y-85300937D01*
X124955982Y-85300937D02*
X124913635Y-85203241D01*
X124913635Y-85203241D02*
X124731243Y-85050196D01*
X124731243Y-85050196D02*
X124627678Y-85025456D01*
X124627678Y-85025456D02*
X124560590Y-85031326D01*
X124560590Y-85031326D02*
X124462894Y-85073674D01*
X124462894Y-85073674D02*
X124340458Y-85219587D01*
X124340458Y-85219587D02*
X124315719Y-85323152D01*
X124315719Y-85323152D02*
X124321588Y-85390240D01*
X124321588Y-85390240D02*
X124363936Y-85487936D01*
X129567883Y-78922548D02*
X128801839Y-78279761D01*
X128801839Y-78279761D02*
X128954883Y-78097369D01*
X128954883Y-78097369D02*
X129083189Y-78018543D01*
X129083189Y-78018543D02*
X129217363Y-78006805D01*
X129217363Y-78006805D02*
X129320929Y-78031544D01*
X129320929Y-78031544D02*
X129497451Y-78117502D01*
X129497451Y-78117502D02*
X129606886Y-78209328D01*
X129606886Y-78209328D02*
X129722190Y-78368242D01*
X129722190Y-78368242D02*
X129764538Y-78465939D01*
X129764538Y-78465939D02*
X129776276Y-78600113D01*
X129776276Y-78600113D02*
X129720928Y-78740157D01*
X129720928Y-78740157D02*
X129567883Y-78922548D01*
X130547369Y-77755243D02*
X130180062Y-78192982D01*
X130363716Y-77974112D02*
X129597671Y-77331325D01*
X129597671Y-77331325D02*
X129645888Y-77496108D01*
X129645888Y-77496108D02*
X129657627Y-77630283D01*
X129657627Y-77630283D02*
X129632887Y-77733848D01*
X130362894Y-76419367D02*
X130056805Y-76784150D01*
X130056805Y-76784150D02*
X130390979Y-77126718D01*
X130390979Y-77126718D02*
X130385110Y-77059631D01*
X130385110Y-77059631D02*
X130409849Y-76956065D01*
X130409849Y-76956065D02*
X130562894Y-76773674D01*
X130562894Y-76773674D02*
X130660590Y-76731326D01*
X130660590Y-76731326D02*
X130727678Y-76725456D01*
X130727678Y-76725456D02*
X130831243Y-76750196D01*
X130831243Y-76750196D02*
X131013635Y-76903241D01*
X131013635Y-76903241D02*
X131055982Y-77000937D01*
X131055982Y-77000937D02*
X131061852Y-77068024D01*
X131061852Y-77068024D02*
X131037112Y-77171590D01*
X131037112Y-77171590D02*
X130884067Y-77353981D01*
X130884067Y-77353981D02*
X130786371Y-77396329D01*
X130786371Y-77396329D02*
X130719284Y-77402198D01*
X129667883Y-69822548D02*
X128901839Y-69179761D01*
X128901839Y-69179761D02*
X129054883Y-68997369D01*
X129054883Y-68997369D02*
X129183189Y-68918543D01*
X129183189Y-68918543D02*
X129317363Y-68906805D01*
X129317363Y-68906805D02*
X129420929Y-68931544D01*
X129420929Y-68931544D02*
X129597451Y-69017502D01*
X129597451Y-69017502D02*
X129706886Y-69109328D01*
X129706886Y-69109328D02*
X129822190Y-69268242D01*
X129822190Y-69268242D02*
X129864538Y-69365939D01*
X129864538Y-69365939D02*
X129876276Y-69500113D01*
X129876276Y-69500113D02*
X129820928Y-69640157D01*
X129820928Y-69640157D02*
X129667883Y-69822548D01*
X130647369Y-68655243D02*
X130280062Y-69092982D01*
X130463716Y-68874112D02*
X129697671Y-68231325D01*
X129697671Y-68231325D02*
X129745888Y-68396108D01*
X129745888Y-68396108D02*
X129757627Y-68530283D01*
X129757627Y-68530283D02*
X129732887Y-68633848D01*
X130687634Y-67570108D02*
X131198330Y-67998633D01*
X130242763Y-67507628D02*
X130636892Y-68149154D01*
X130636892Y-68149154D02*
X131034809Y-67674936D01*
X135267883Y-62322548D02*
X134501839Y-61679761D01*
X134501839Y-61679761D02*
X134654883Y-61497369D01*
X134654883Y-61497369D02*
X134783189Y-61418543D01*
X134783189Y-61418543D02*
X134917363Y-61406805D01*
X134917363Y-61406805D02*
X135020929Y-61431544D01*
X135020929Y-61431544D02*
X135197451Y-61517502D01*
X135197451Y-61517502D02*
X135306886Y-61609328D01*
X135306886Y-61609328D02*
X135422190Y-61768242D01*
X135422190Y-61768242D02*
X135464538Y-61865939D01*
X135464538Y-61865939D02*
X135476276Y-62000113D01*
X135476276Y-62000113D02*
X135420928Y-62140157D01*
X135420928Y-62140157D02*
X135267883Y-62322548D01*
X136247369Y-61155243D02*
X135880062Y-61592982D01*
X136063716Y-61374112D02*
X135297671Y-60731325D01*
X135297671Y-60731325D02*
X135345888Y-60896108D01*
X135345888Y-60896108D02*
X135357627Y-61030283D01*
X135357627Y-61030283D02*
X135332887Y-61133848D01*
X135695587Y-60257107D02*
X136093503Y-59782889D01*
X136093503Y-59782889D02*
X136171067Y-60283108D01*
X136171067Y-60283108D02*
X136262894Y-60173674D01*
X136262894Y-60173674D02*
X136360590Y-60131326D01*
X136360590Y-60131326D02*
X136427678Y-60125456D01*
X136427678Y-60125456D02*
X136531243Y-60150196D01*
X136531243Y-60150196D02*
X136713635Y-60303241D01*
X136713635Y-60303241D02*
X136755982Y-60400937D01*
X136755982Y-60400937D02*
X136761852Y-60468024D01*
X136761852Y-60468024D02*
X136737112Y-60571590D01*
X136737112Y-60571590D02*
X136553459Y-60790459D01*
X136553459Y-60790459D02*
X136455762Y-60832807D01*
X136455762Y-60832807D02*
X136388675Y-60838677D01*
X169298972Y-127775807D02*
X170164997Y-127275807D01*
X170164997Y-127275807D02*
X170284045Y-127482003D01*
X170284045Y-127482003D02*
X170314234Y-127629531D01*
X170314234Y-127629531D02*
X170279374Y-127759628D01*
X170279374Y-127759628D02*
X170220705Y-127848487D01*
X170220705Y-127848487D02*
X170079558Y-127984964D01*
X170079558Y-127984964D02*
X169955840Y-128056393D01*
X169955840Y-128056393D02*
X169767073Y-128110391D01*
X169767073Y-128110391D02*
X169660785Y-128116771D01*
X169660785Y-128116771D02*
X169530687Y-128081912D01*
X169530687Y-128081912D02*
X169418019Y-127982003D01*
X169418019Y-127982003D02*
X169298972Y-127775807D01*
X170060877Y-129095464D02*
X169775162Y-128600593D01*
X169918019Y-128848029D02*
X170784045Y-128348029D01*
X170784045Y-128348029D02*
X170612708Y-128336979D01*
X170612708Y-128336979D02*
X170482610Y-128302119D01*
X170482610Y-128302119D02*
X170393752Y-128243450D01*
X171034900Y-128972998D02*
X171099948Y-128990428D01*
X171099948Y-128990428D02*
X171188807Y-129049097D01*
X171188807Y-129049097D02*
X171307854Y-129255293D01*
X171307854Y-129255293D02*
X171314234Y-129361582D01*
X171314234Y-129361582D02*
X171296804Y-129426630D01*
X171296804Y-129426630D02*
X171238135Y-129515489D01*
X171238135Y-129515489D02*
X171155657Y-129563108D01*
X171155657Y-129563108D02*
X171008129Y-129593297D01*
X171008129Y-129593297D02*
X170227543Y-129384140D01*
X170227543Y-129384140D02*
X170537067Y-129920251D01*
X162223735Y-121773058D02*
X163089760Y-121273058D01*
X163089760Y-121273058D02*
X163208808Y-121479254D01*
X163208808Y-121479254D02*
X163238997Y-121626782D01*
X163238997Y-121626782D02*
X163204137Y-121756879D01*
X163204137Y-121756879D02*
X163145468Y-121845738D01*
X163145468Y-121845738D02*
X163004321Y-121982215D01*
X163004321Y-121982215D02*
X162880603Y-122053644D01*
X162880603Y-122053644D02*
X162691836Y-122107642D01*
X162691836Y-122107642D02*
X162585548Y-122114022D01*
X162585548Y-122114022D02*
X162455450Y-122079163D01*
X162455450Y-122079163D02*
X162342782Y-121979254D01*
X162342782Y-121979254D02*
X162223735Y-121773058D01*
X162985640Y-123092715D02*
X162699925Y-122597844D01*
X162842782Y-122845280D02*
X163708808Y-122345280D01*
X163708808Y-122345280D02*
X163537471Y-122334230D01*
X163537471Y-122334230D02*
X163407373Y-122299370D01*
X163407373Y-122299370D02*
X163318515Y-122240701D01*
X163461830Y-123917502D02*
X163176116Y-123422630D01*
X163318973Y-123670066D02*
X164184998Y-123170066D01*
X164184998Y-123170066D02*
X164013661Y-123159016D01*
X164013661Y-123159016D02*
X163883564Y-123124156D01*
X163883564Y-123124156D02*
X163794705Y-123065487D01*
X156423735Y-113873058D02*
X157289760Y-113373058D01*
X157289760Y-113373058D02*
X157408808Y-113579254D01*
X157408808Y-113579254D02*
X157438997Y-113726782D01*
X157438997Y-113726782D02*
X157404137Y-113856879D01*
X157404137Y-113856879D02*
X157345468Y-113945738D01*
X157345468Y-113945738D02*
X157204321Y-114082215D01*
X157204321Y-114082215D02*
X157080603Y-114153644D01*
X157080603Y-114153644D02*
X156891836Y-114207642D01*
X156891836Y-114207642D02*
X156785548Y-114214022D01*
X156785548Y-114214022D02*
X156655450Y-114179163D01*
X156655450Y-114179163D02*
X156542782Y-114079254D01*
X156542782Y-114079254D02*
X156423735Y-113873058D01*
X157185640Y-115192715D02*
X156899925Y-114697844D01*
X157042782Y-114945280D02*
X157908808Y-114445280D01*
X157908808Y-114445280D02*
X157737471Y-114434230D01*
X157737471Y-114434230D02*
X157607373Y-114399370D01*
X157607373Y-114399370D02*
X157518515Y-114340701D01*
X158361189Y-115228826D02*
X158408808Y-115311305D01*
X158408808Y-115311305D02*
X158415188Y-115417593D01*
X158415188Y-115417593D02*
X158397758Y-115482642D01*
X158397758Y-115482642D02*
X158339089Y-115571500D01*
X158339089Y-115571500D02*
X158197941Y-115707978D01*
X158197941Y-115707978D02*
X157991744Y-115827025D01*
X157991744Y-115827025D02*
X157802978Y-115881024D01*
X157802978Y-115881024D02*
X157696690Y-115887404D01*
X157696690Y-115887404D02*
X157631641Y-115869974D01*
X157631641Y-115869974D02*
X157542782Y-115811305D01*
X157542782Y-115811305D02*
X157495163Y-115728826D01*
X157495163Y-115728826D02*
X157488784Y-115622538D01*
X157488784Y-115622538D02*
X157506213Y-115557490D01*
X157506213Y-115557490D02*
X157564882Y-115468631D01*
X157564882Y-115468631D02*
X157706030Y-115332154D01*
X157706030Y-115332154D02*
X157912227Y-115213106D01*
X157912227Y-115213106D02*
X158100993Y-115159107D01*
X158100993Y-115159107D02*
X158207282Y-115152728D01*
X158207282Y-115152728D02*
X158272330Y-115170157D01*
X158272330Y-115170157D02*
X158361189Y-115228826D01*
X160437067Y-104088200D02*
X161303093Y-103588200D01*
X161303093Y-103588200D02*
X161422140Y-103794397D01*
X161422140Y-103794397D02*
X161452330Y-103941924D01*
X161452330Y-103941924D02*
X161417470Y-104072022D01*
X161417470Y-104072022D02*
X161358801Y-104160880D01*
X161358801Y-104160880D02*
X161217653Y-104297358D01*
X161217653Y-104297358D02*
X161093935Y-104368786D01*
X161093935Y-104368786D02*
X160905169Y-104422785D01*
X160905169Y-104422785D02*
X160798880Y-104429165D01*
X160798880Y-104429165D02*
X160668783Y-104394305D01*
X160668783Y-104394305D02*
X160556115Y-104294397D01*
X160556115Y-104294397D02*
X160437067Y-104088200D01*
X160960877Y-104995465D02*
X161056115Y-105160422D01*
X161056115Y-105160422D02*
X161144973Y-105219091D01*
X161144973Y-105219091D02*
X161210022Y-105236521D01*
X161210022Y-105236521D02*
X161381359Y-105247571D01*
X161381359Y-105247571D02*
X161570126Y-105193572D01*
X161570126Y-105193572D02*
X161900040Y-105003096D01*
X161900040Y-105003096D02*
X161958709Y-104914238D01*
X161958709Y-104914238D02*
X161976139Y-104849189D01*
X161976139Y-104849189D02*
X161969759Y-104742901D01*
X161969759Y-104742901D02*
X161874521Y-104577944D01*
X161874521Y-104577944D02*
X161785663Y-104519274D01*
X161785663Y-104519274D02*
X161720614Y-104501845D01*
X161720614Y-104501845D02*
X161614326Y-104508224D01*
X161614326Y-104508224D02*
X161408129Y-104627272D01*
X161408129Y-104627272D02*
X161349460Y-104716130D01*
X161349460Y-104716130D02*
X161332031Y-104781179D01*
X161332031Y-104781179D02*
X161338410Y-104887467D01*
X161338410Y-104887467D02*
X161433648Y-105052425D01*
X161433648Y-105052425D02*
X161522507Y-105111094D01*
X161522507Y-105111094D02*
X161587556Y-105128523D01*
X161587556Y-105128523D02*
X161693844Y-105122144D01*
X154637067Y-94888200D02*
X155503093Y-94388200D01*
X155503093Y-94388200D02*
X155622140Y-94594397D01*
X155622140Y-94594397D02*
X155652330Y-94741924D01*
X155652330Y-94741924D02*
X155617470Y-94872022D01*
X155617470Y-94872022D02*
X155558801Y-94960880D01*
X155558801Y-94960880D02*
X155417653Y-95097358D01*
X155417653Y-95097358D02*
X155293935Y-95168786D01*
X155293935Y-95168786D02*
X155105169Y-95222785D01*
X155105169Y-95222785D02*
X154998880Y-95229165D01*
X154998880Y-95229165D02*
X154868783Y-95194305D01*
X154868783Y-95194305D02*
X154756115Y-95094397D01*
X154756115Y-95094397D02*
X154637067Y-94888200D01*
X155703368Y-95592229D02*
X155696988Y-95485941D01*
X155696988Y-95485941D02*
X155714418Y-95420892D01*
X155714418Y-95420892D02*
X155773087Y-95332034D01*
X155773087Y-95332034D02*
X155814326Y-95308224D01*
X155814326Y-95308224D02*
X155920614Y-95301845D01*
X155920614Y-95301845D02*
X155985663Y-95319274D01*
X155985663Y-95319274D02*
X156074521Y-95377944D01*
X156074521Y-95377944D02*
X156169759Y-95542901D01*
X156169759Y-95542901D02*
X156176139Y-95649189D01*
X156176139Y-95649189D02*
X156158709Y-95714238D01*
X156158709Y-95714238D02*
X156100040Y-95803096D01*
X156100040Y-95803096D02*
X156058801Y-95826906D01*
X156058801Y-95826906D02*
X155952513Y-95833285D01*
X155952513Y-95833285D02*
X155887464Y-95815856D01*
X155887464Y-95815856D02*
X155798606Y-95757186D01*
X155798606Y-95757186D02*
X155703368Y-95592229D01*
X155703368Y-95592229D02*
X155614509Y-95533560D01*
X155614509Y-95533560D02*
X155549460Y-95516130D01*
X155549460Y-95516130D02*
X155443172Y-95522510D01*
X155443172Y-95522510D02*
X155278215Y-95617748D01*
X155278215Y-95617748D02*
X155219546Y-95706607D01*
X155219546Y-95706607D02*
X155202116Y-95771655D01*
X155202116Y-95771655D02*
X155208496Y-95877944D01*
X155208496Y-95877944D02*
X155303734Y-96042901D01*
X155303734Y-96042901D02*
X155392592Y-96101570D01*
X155392592Y-96101570D02*
X155457641Y-96119000D01*
X155457641Y-96119000D02*
X155563929Y-96112620D01*
X155563929Y-96112620D02*
X155728886Y-96017382D01*
X155728886Y-96017382D02*
X155787556Y-95928523D01*
X155787556Y-95928523D02*
X155804985Y-95863475D01*
X155804985Y-95863475D02*
X155798606Y-95757186D01*
X156037067Y-84588200D02*
X156903093Y-84088200D01*
X156903093Y-84088200D02*
X157022140Y-84294397D01*
X157022140Y-84294397D02*
X157052330Y-84441924D01*
X157052330Y-84441924D02*
X157017470Y-84572022D01*
X157017470Y-84572022D02*
X156958801Y-84660880D01*
X156958801Y-84660880D02*
X156817653Y-84797358D01*
X156817653Y-84797358D02*
X156693935Y-84868786D01*
X156693935Y-84868786D02*
X156505169Y-84922785D01*
X156505169Y-84922785D02*
X156398880Y-84929165D01*
X156398880Y-84929165D02*
X156268783Y-84894305D01*
X156268783Y-84894305D02*
X156156115Y-84794397D01*
X156156115Y-84794397D02*
X156037067Y-84588200D01*
X157355474Y-84871747D02*
X157688807Y-85449097D01*
X157688807Y-85449097D02*
X156608496Y-85577944D01*
X150437067Y-76588200D02*
X151303093Y-76088200D01*
X151303093Y-76088200D02*
X151422140Y-76294397D01*
X151422140Y-76294397D02*
X151452330Y-76441924D01*
X151452330Y-76441924D02*
X151417470Y-76572022D01*
X151417470Y-76572022D02*
X151358801Y-76660880D01*
X151358801Y-76660880D02*
X151217653Y-76797358D01*
X151217653Y-76797358D02*
X151093935Y-76868786D01*
X151093935Y-76868786D02*
X150905169Y-76922785D01*
X150905169Y-76922785D02*
X150798880Y-76929165D01*
X150798880Y-76929165D02*
X150668783Y-76894305D01*
X150668783Y-76894305D02*
X150556115Y-76794397D01*
X150556115Y-76794397D02*
X150437067Y-76588200D01*
X152017378Y-77325379D02*
X151922140Y-77160422D01*
X151922140Y-77160422D02*
X151833282Y-77101753D01*
X151833282Y-77101753D02*
X151768233Y-77084323D01*
X151768233Y-77084323D02*
X151596896Y-77073273D01*
X151596896Y-77073273D02*
X151408129Y-77127272D01*
X151408129Y-77127272D02*
X151078215Y-77317748D01*
X151078215Y-77317748D02*
X151019546Y-77406607D01*
X151019546Y-77406607D02*
X151002116Y-77471655D01*
X151002116Y-77471655D02*
X151008496Y-77577944D01*
X151008496Y-77577944D02*
X151103734Y-77742901D01*
X151103734Y-77742901D02*
X151192592Y-77801570D01*
X151192592Y-77801570D02*
X151257641Y-77819000D01*
X151257641Y-77819000D02*
X151363929Y-77812620D01*
X151363929Y-77812620D02*
X151570126Y-77693572D01*
X151570126Y-77693572D02*
X151628795Y-77604714D01*
X151628795Y-77604714D02*
X151646225Y-77539665D01*
X151646225Y-77539665D02*
X151639845Y-77433377D01*
X151639845Y-77433377D02*
X151544607Y-77268420D01*
X151544607Y-77268420D02*
X151455748Y-77209751D01*
X151455748Y-77209751D02*
X151390700Y-77192321D01*
X151390700Y-77192321D02*
X151284411Y-77198701D01*
X150004080Y-68056261D02*
X150823232Y-67482685D01*
X150823232Y-67482685D02*
X150959798Y-67677721D01*
X150959798Y-67677721D02*
X151002730Y-67822056D01*
X151002730Y-67822056D02*
X150979342Y-67954697D01*
X150979342Y-67954697D02*
X150928640Y-68048330D01*
X150928640Y-68048330D02*
X150799925Y-68196590D01*
X150799925Y-68196590D02*
X150682903Y-68278530D01*
X150682903Y-68278530D02*
X150499561Y-68348775D01*
X150499561Y-68348775D02*
X150394233Y-68364394D01*
X150394233Y-68364394D02*
X150261592Y-68341006D01*
X150261592Y-68341006D02*
X150140646Y-68251297D01*
X150140646Y-68251297D02*
X150004080Y-68056261D01*
X151669940Y-68691909D02*
X151396808Y-68301837D01*
X151396808Y-68301837D02*
X150979423Y-68535961D01*
X150979423Y-68535961D02*
X151045743Y-68547655D01*
X151045743Y-68547655D02*
X151139377Y-68598357D01*
X151139377Y-68598357D02*
X151275942Y-68793393D01*
X151275942Y-68793393D02*
X151291562Y-68898720D01*
X151291562Y-68898720D02*
X151279867Y-68965041D01*
X151279867Y-68965041D02*
X151229166Y-69058674D01*
X151229166Y-69058674D02*
X151034130Y-69195240D01*
X151034130Y-69195240D02*
X150928802Y-69210859D01*
X150928802Y-69210859D02*
X150862482Y-69199165D01*
X150862482Y-69199165D02*
X150768848Y-69148464D01*
X150768848Y-69148464D02*
X150632283Y-68953428D01*
X150632283Y-68953428D02*
X150616663Y-68848100D01*
X150616663Y-68848100D02*
X150628358Y-68781780D01*
X144604080Y-60356261D02*
X145423232Y-59782685D01*
X145423232Y-59782685D02*
X145559798Y-59977721D01*
X145559798Y-59977721D02*
X145602730Y-60122056D01*
X145602730Y-60122056D02*
X145579342Y-60254697D01*
X145579342Y-60254697D02*
X145528640Y-60348330D01*
X145528640Y-60348330D02*
X145399925Y-60496590D01*
X145399925Y-60496590D02*
X145282903Y-60578530D01*
X145282903Y-60578530D02*
X145099561Y-60648775D01*
X145099561Y-60648775D02*
X144994233Y-60664394D01*
X144994233Y-60664394D02*
X144861592Y-60641006D01*
X144861592Y-60641006D02*
X144740646Y-60551297D01*
X144740646Y-60551297D02*
X144604080Y-60356261D01*
X145969576Y-61144094D02*
X145423475Y-61526478D01*
X146145068Y-60730553D02*
X145423394Y-60945214D01*
X145423394Y-60945214D02*
X145778465Y-61452308D01*
X141854819Y-48838094D02*
X140854819Y-48838094D01*
X140854819Y-48838094D02*
X140854819Y-48599999D01*
X140854819Y-48599999D02*
X140902438Y-48457142D01*
X140902438Y-48457142D02*
X140997676Y-48361904D01*
X140997676Y-48361904D02*
X141092914Y-48314285D01*
X141092914Y-48314285D02*
X141283390Y-48266666D01*
X141283390Y-48266666D02*
X141426247Y-48266666D01*
X141426247Y-48266666D02*
X141616723Y-48314285D01*
X141616723Y-48314285D02*
X141711961Y-48361904D01*
X141711961Y-48361904D02*
X141807200Y-48457142D01*
X141807200Y-48457142D02*
X141854819Y-48599999D01*
X141854819Y-48599999D02*
X141854819Y-48838094D01*
X140854819Y-47933332D02*
X140854819Y-47314285D01*
X140854819Y-47314285D02*
X141235771Y-47647618D01*
X141235771Y-47647618D02*
X141235771Y-47504761D01*
X141235771Y-47504761D02*
X141283390Y-47409523D01*
X141283390Y-47409523D02*
X141331009Y-47361904D01*
X141331009Y-47361904D02*
X141426247Y-47314285D01*
X141426247Y-47314285D02*
X141664342Y-47314285D01*
X141664342Y-47314285D02*
X141759580Y-47361904D01*
X141759580Y-47361904D02*
X141807200Y-47409523D01*
X141807200Y-47409523D02*
X141854819Y-47504761D01*
X141854819Y-47504761D02*
X141854819Y-47790475D01*
X141854819Y-47790475D02*
X141807200Y-47885713D01*
X141807200Y-47885713D02*
X141759580Y-47933332D01*
X138456905Y-136494819D02*
X138456905Y-135494819D01*
X138456905Y-135494819D02*
X138695000Y-135494819D01*
X138695000Y-135494819D02*
X138837857Y-135542438D01*
X138837857Y-135542438D02*
X138933095Y-135637676D01*
X138933095Y-135637676D02*
X138980714Y-135732914D01*
X138980714Y-135732914D02*
X139028333Y-135923390D01*
X139028333Y-135923390D02*
X139028333Y-136066247D01*
X139028333Y-136066247D02*
X138980714Y-136256723D01*
X138980714Y-136256723D02*
X138933095Y-136351961D01*
X138933095Y-136351961D02*
X138837857Y-136447200D01*
X138837857Y-136447200D02*
X138695000Y-136494819D01*
X138695000Y-136494819D02*
X138456905Y-136494819D01*
X139409286Y-135590057D02*
X139456905Y-135542438D01*
X139456905Y-135542438D02*
X139552143Y-135494819D01*
X139552143Y-135494819D02*
X139790238Y-135494819D01*
X139790238Y-135494819D02*
X139885476Y-135542438D01*
X139885476Y-135542438D02*
X139933095Y-135590057D01*
X139933095Y-135590057D02*
X139980714Y-135685295D01*
X139980714Y-135685295D02*
X139980714Y-135780533D01*
X139980714Y-135780533D02*
X139933095Y-135923390D01*
X139933095Y-135923390D02*
X139361667Y-136494819D01*
X139361667Y-136494819D02*
X139980714Y-136494819D01*
X144556905Y-136494819D02*
X144556905Y-135494819D01*
X144556905Y-135494819D02*
X144795000Y-135494819D01*
X144795000Y-135494819D02*
X144937857Y-135542438D01*
X144937857Y-135542438D02*
X145033095Y-135637676D01*
X145033095Y-135637676D02*
X145080714Y-135732914D01*
X145080714Y-135732914D02*
X145128333Y-135923390D01*
X145128333Y-135923390D02*
X145128333Y-136066247D01*
X145128333Y-136066247D02*
X145080714Y-136256723D01*
X145080714Y-136256723D02*
X145033095Y-136351961D01*
X145033095Y-136351961D02*
X144937857Y-136447200D01*
X144937857Y-136447200D02*
X144795000Y-136494819D01*
X144795000Y-136494819D02*
X144556905Y-136494819D01*
X146080714Y-136494819D02*
X145509286Y-136494819D01*
X145795000Y-136494819D02*
X145795000Y-135494819D01*
X145795000Y-135494819D02*
X145699762Y-135637676D01*
X145699762Y-135637676D02*
X145604524Y-135732914D01*
X145604524Y-135732914D02*
X145509286Y-135780533D01*
X144433333Y-128159580D02*
X144385714Y-128207200D01*
X144385714Y-128207200D02*
X144242857Y-128254819D01*
X144242857Y-128254819D02*
X144147619Y-128254819D01*
X144147619Y-128254819D02*
X144004762Y-128207200D01*
X144004762Y-128207200D02*
X143909524Y-128111961D01*
X143909524Y-128111961D02*
X143861905Y-128016723D01*
X143861905Y-128016723D02*
X143814286Y-127826247D01*
X143814286Y-127826247D02*
X143814286Y-127683390D01*
X143814286Y-127683390D02*
X143861905Y-127492914D01*
X143861905Y-127492914D02*
X143909524Y-127397676D01*
X143909524Y-127397676D02*
X144004762Y-127302438D01*
X144004762Y-127302438D02*
X144147619Y-127254819D01*
X144147619Y-127254819D02*
X144242857Y-127254819D01*
X144242857Y-127254819D02*
X144385714Y-127302438D01*
X144385714Y-127302438D02*
X144433333Y-127350057D01*
X145385714Y-128254819D02*
X144814286Y-128254819D01*
X145100000Y-128254819D02*
X145100000Y-127254819D01*
X145100000Y-127254819D02*
X145004762Y-127397676D01*
X145004762Y-127397676D02*
X144909524Y-127492914D01*
X144909524Y-127492914D02*
X144814286Y-127540533D01*
D13*
%TO.C,U2*%
X138440000Y-88270000D02*
X138440000Y-108710000D01*
X138440000Y-108710000D02*
X143740000Y-108710000D01*
X140090000Y-88270000D02*
X138440000Y-88270000D01*
X143740000Y-88270000D02*
X142090000Y-88270000D01*
X143740000Y-108710000D02*
X143740000Y-88270000D01*
X142090000Y-88270000D02*
G75*
G02*
X140090000Y-88270000I-1000000J0D01*
G01*
%TO.C,U1*%
X138560000Y-111170000D02*
X138560000Y-121450000D01*
X138560000Y-121450000D02*
X143860000Y-121450000D01*
X140210000Y-111170000D02*
X138560000Y-111170000D01*
X143860000Y-111170000D02*
X142210000Y-111170000D01*
X143860000Y-121450000D02*
X143860000Y-111170000D01*
X142210000Y-111170000D02*
G75*
G02*
X140210000Y-111170000I-1000000J0D01*
G01*
%TO.C,R11*%
X142280000Y-79060000D02*
X142280000Y-75220000D01*
X144120000Y-79060000D02*
X144120000Y-75220000D01*
%TO.C,R10*%
X142120000Y-67120000D02*
X142120000Y-70960000D01*
X140280000Y-67120000D02*
X140280000Y-70960000D01*
%TO.C,R8*%
X138380000Y-78960000D02*
X138380000Y-75120000D01*
X140220000Y-78960000D02*
X140220000Y-75120000D01*
%TO.C,R7*%
X148280000Y-95460000D02*
X148280000Y-91620000D01*
X150120000Y-95460000D02*
X150120000Y-91620000D01*
%TO.C,R6*%
X150120000Y-99620000D02*
X150120000Y-103460000D01*
X148280000Y-99620000D02*
X148280000Y-103460000D01*
%TO.C,R5*%
X148220000Y-130320000D02*
X148220000Y-134160000D01*
X146380000Y-130320000D02*
X146380000Y-134160000D01*
%TO.C,R4*%
X137820000Y-130180000D02*
X137820000Y-134020000D01*
X135980000Y-130180000D02*
X135980000Y-134020000D01*
%TO.C,R3*%
X149880000Y-112820000D02*
X149880000Y-108980000D01*
X151720000Y-112820000D02*
X151720000Y-108980000D01*
%TO.C,R2*%
X151720000Y-116680000D02*
X151720000Y-120520000D01*
X149880000Y-116680000D02*
X149880000Y-120520000D01*
%TO.C,R1*%
X131880000Y-100520000D02*
X131880000Y-96680000D01*
X133720000Y-100520000D02*
X133720000Y-96680000D01*
%TO.C,D21*%
X107240126Y-129028044D02*
X110204718Y-131515632D01*
X110204718Y-131515632D02*
X114807077Y-126030754D01*
X111842485Y-123543166D02*
X107240126Y-129028044D01*
%TO.C,D20*%
X112919798Y-121416602D02*
X115884390Y-123904190D01*
X115884390Y-123904190D02*
X120486749Y-118419312D01*
X117522157Y-115931724D02*
X112919798Y-121416602D01*
%TO.C,D19*%
X118640126Y-114128044D02*
X121604718Y-116615632D01*
X121604718Y-116615632D02*
X126207077Y-111130754D01*
X123242485Y-108643166D02*
X118640126Y-114128044D01*
%TO.C,D18*%
X115419798Y-106216602D02*
X118384390Y-108704190D01*
X118384390Y-108704190D02*
X122986749Y-103219312D01*
X120022157Y-100731724D02*
X115419798Y-106216602D01*
%TO.C,D17*%
X122419798Y-97416602D02*
X125384390Y-99904190D01*
X125384390Y-99904190D02*
X129986749Y-94419312D01*
X127022157Y-91931724D02*
X122419798Y-97416602D01*
%TO.C,D16*%
X119619798Y-87816602D02*
X122584390Y-90304190D01*
X122584390Y-90304190D02*
X127186749Y-84819312D01*
X124222157Y-82331724D02*
X119619798Y-87816602D01*
%TO.C,D15*%
X125919798Y-79716602D02*
X128884390Y-82204190D01*
X128884390Y-82204190D02*
X133486749Y-76719312D01*
X130522157Y-74231724D02*
X125919798Y-79716602D01*
%TO.C,D14*%
X126040126Y-70428045D02*
X129004717Y-72915632D01*
X129004717Y-72915632D02*
X133607077Y-67430754D01*
X130642485Y-64943166D02*
X126040126Y-70428045D01*
%TO.C,D13*%
X131640126Y-62828045D02*
X134604717Y-65315632D01*
X134604717Y-65315632D02*
X139207077Y-59830754D01*
X136242485Y-57343166D02*
X131640126Y-62828045D01*
%TO.C,D12*%
X167042991Y-126926771D02*
X170622991Y-133127513D01*
X173974509Y-131192513D02*
X170394509Y-124991771D01*
X170622991Y-133127513D02*
X173974509Y-131192513D01*
%TO.C,D11*%
X162242991Y-119526771D02*
X165822991Y-125727513D01*
X169174509Y-123792513D02*
X165594509Y-117591771D01*
X165822991Y-125727513D02*
X169174509Y-123792513D01*
%TO.C,D10*%
X156442991Y-111626771D02*
X160022991Y-117827513D01*
X163374509Y-115892513D02*
X159794509Y-109691771D01*
X160022991Y-117827513D02*
X163374509Y-115892513D01*
%TO.C,D9*%
X161629241Y-108940262D02*
X164980759Y-107005262D01*
X164980759Y-107005262D02*
X161400759Y-100804520D01*
X158049241Y-102739520D02*
X161629241Y-108940262D01*
%TO.C,D8*%
X155829241Y-99540262D02*
X159180759Y-97605262D01*
X159180759Y-97605262D02*
X155600759Y-91404520D01*
X152249241Y-93339520D02*
X155829241Y-99540262D01*
%TO.C,D7*%
X156922991Y-89727513D02*
X160274509Y-87792513D01*
X160274509Y-87792513D02*
X156694509Y-81591771D01*
X153342991Y-83526771D02*
X156922991Y-89727513D01*
%TO.C,D6*%
X151729241Y-81340262D02*
X155080759Y-79405262D01*
X155080759Y-79405262D02*
X151500759Y-73204520D01*
X148149241Y-75139520D02*
X151729241Y-81340262D01*
%TO.C,D5*%
X151628542Y-72741887D02*
X154798661Y-70522146D01*
X154798661Y-70522146D02*
X150691853Y-64657018D01*
X147521735Y-66876758D02*
X151628542Y-72741887D01*
%TO.C,D4*%
X146128542Y-65141887D02*
X149298661Y-62922146D01*
X149298661Y-62922146D02*
X145191853Y-57057018D01*
X142021735Y-59276758D02*
X146128542Y-65141887D01*
%TO.C,D3*%
X139365000Y-51910000D02*
X143235000Y-51910000D01*
X143235000Y-51910000D02*
X143235000Y-44750000D01*
X139365000Y-44750000D02*
X139365000Y-51910000D01*
%TO.C,D2*%
X137135000Y-138101000D02*
X137135000Y-138420000D01*
X137135000Y-140580000D02*
X137135000Y-140899000D01*
X137135000Y-138101251D02*
G75*
G02*
X141438242Y-138419276I2060000J-1398749D01*
G01*
X137511670Y-138420000D02*
G75*
G02*
X140877713Y-138419039I1683330J-1080000D01*
G01*
X140877713Y-140580961D02*
G75*
G02*
X137511670Y-140580000I-1682713J1080961D01*
G01*
X141438242Y-140580724D02*
G75*
G02*
X137135000Y-140898749I-2243242J1080724D01*
G01*
%TO.C,D1*%
X143235000Y-138101000D02*
X143235000Y-138420000D01*
X143235000Y-140580000D02*
X143235000Y-140899000D01*
X143235000Y-138101251D02*
G75*
G02*
X147538242Y-138419276I2060000J-1398749D01*
G01*
X143611670Y-138420000D02*
G75*
G02*
X146977713Y-138419039I1683330J-1080000D01*
G01*
X146977713Y-140580961D02*
G75*
G02*
X143611670Y-140580000I-1682713J1080961D01*
G01*
X147538242Y-140580724D02*
G75*
G02*
X143235000Y-140898749I-2243242J1080724D01*
G01*
%TO.C,C2*%
X133070000Y-114980000D02*
X132755000Y-114980000D01*
X133070000Y-114980000D02*
X133070000Y-120220000D01*
X130645000Y-114980000D02*
X130330000Y-114980000D01*
X130330000Y-114980000D02*
X130330000Y-120220000D01*
X133070000Y-120220000D02*
X132755000Y-120220000D01*
X130645000Y-120220000D02*
X130330000Y-120220000D01*
%TO.C,C1*%
X147220000Y-126670000D02*
X147220000Y-126355000D01*
X147220000Y-126670000D02*
X141980000Y-126670000D01*
X147220000Y-124245000D02*
X147220000Y-123930000D01*
X147220000Y-123930000D02*
X141980000Y-123930000D01*
X141980000Y-126670000D02*
X141980000Y-126355000D01*
X141980000Y-124245000D02*
X141980000Y-123930000D01*
%TD*%
M02*
