M48
; DRILL file {KiCad 8.0.5} date 2024-11-21T02:05:50-0800
; FORMAT={-:-/ absolute / inch / decimal}
; #@! TF.CreationDate,2024-11-21T02:05:50-08:00
; #@! TF.GenerationSoftware,Kicad,Pcbnew,8.0.5
; #@! TF.FileFunction,Plated,1,2,PTH
FMAT,2
INCH
; #@! TA.AperFunction,Plated,PTH,ViaDrill
T1C0.0118
; #@! TA.AperFunction,Plated,PTH,ComponentDrill
T2C0.0276
; #@! TA.AperFunction,Plated,PTH,ComponentDrill
T3C0.0315
; #@! TA.AperFunction,Plated,PTH,ComponentDrill
T4C0.0354
%
G90
G05
T1
X4.6102Y-4.9803
X5.1677Y-4.1276
X5.1969Y-4.0906
X5.2017Y-4.2156
X5.3562Y-3.9114
X5.3583Y-4.3386
X5.4272Y-2.5925
X5.5276Y-2.1378
X5.5433Y-3.1969
X5.5591Y-5.0157
X5.563Y-2.0906
X5.5984Y-5.0984
X5.626Y-4.2441
X5.6969Y-4.315
X5.705Y-2.5548
X5.7717Y-4.0906
X5.8021Y-3.1368
X5.9331Y-4.1732
X5.9409Y-3.9606
X5.9685Y-3.2598
X5.9921Y-3.3268
T2
X5.2283Y-3.7819
X5.2283Y-3.9819
X5.3898Y-5.1008
X5.3898Y-5.3008
X5.4843Y-2.9331
X5.4843Y-3.1331
X5.5591Y-2.6181
X5.5591Y-2.8181
X5.6378Y-2.937
X5.6378Y-3.137
X5.7992Y-5.1063
X5.7992Y-5.3063
X5.874Y-3.5827
X5.874Y-3.7827
X5.874Y-3.8976
X5.874Y-4.0976
X5.937Y-4.2661
X5.937Y-4.4661
X5.937Y-4.5693
X5.937Y-4.7693
T3
X5.185Y-4.5315
X5.185Y-4.7283
X5.4047Y-3.5276
X5.4047Y-3.6276
X5.4047Y-3.7276
X5.4047Y-3.8276
X5.4047Y-3.9276
X5.4047Y-4.0276
X5.4047Y-4.1276
X5.4047Y-4.2276
X5.4094Y-4.4291
X5.4094Y-4.5291
X5.4094Y-4.6291
X5.4094Y-4.7291
X5.5945Y-4.9331
X5.7047Y-3.5276
X5.7047Y-3.6276
X5.7047Y-3.7276
X5.7047Y-3.8276
X5.7047Y-3.9276
X5.7047Y-4.0276
X5.7047Y-4.1276
X5.7047Y-4.2276
X5.7094Y-4.4291
X5.7094Y-4.5291
X5.7094Y-4.6291
X5.7094Y-4.7291
X5.7913Y-4.9331
T4
X5.4301Y-5.4921
X5.5301Y-5.4921
X5.6703Y-5.4921
X5.7703Y-5.4921
M30
